<svg width="35" height="16" viewBox="0 0 35 16" fill="none" xmlns="http://www.w3.org/2000/svg">
<path d="M0.529412 11.6176C0.0421017 11.8775 -0.142252 12.4833 0.117647 12.9706C0.377546 13.4579 0.983278 13.6423 1.47059 13.3824L1 12.5L0.529412 11.6176ZM8.5 8.5L9.0241 7.64834L8.53556 7.3477L8.02941 7.61765L8.5 8.5ZM15 12.5L14.4759 13.3517L14.9742 13.6583L15.4856 13.3742L15 12.5ZM34.0882 9.80874C34.5348 9.4839 34.6336 8.85848 34.3087 8.41183L29.0152 1.1332C28.6904 0.686551 28.0649 0.587801 27.6183 0.912639C27.1716 1.23748 27.0729 1.86289 27.3977 2.30955L32.1031 8.77944L25.6332 13.4848C25.1866 13.8096 25.0878 14.4351 25.4126 14.8817C25.7375 15.3284 26.3629 15.4271 26.8095 15.1023L34.0882 9.80874ZM24 7.5L24.156 6.51224L23.8156 6.45849L23.5144 6.62584L24 7.5ZM1 12.5L1.47059 13.3824L8.97059 9.38235L8.5 8.5L8.02941 7.61765L0.529412 11.6176L1 12.5ZM8.5 8.5L7.9759 9.35166L14.4759 13.3517L15 12.5L15.5241 11.6483L9.0241 7.64834L8.5 8.5ZM15 12.5L15.4856 13.3742L24.4856 8.37416L24 7.5L23.5144 6.62584L14.5144 11.6258L15 12.5ZM24 7.5L23.844 8.48776L33.344 9.98776L33.5 9L33.656 8.01224L24.156 6.51224L24 7.5Z" fill="black"/>
</svg>
