<svg width="529" height="284" viewBox="0 0 529 284" fill="none" xmlns="http://www.w3.org/2000/svg">
<path d="M3.64205 620L87.1818 541.359M3.64205 620L67.5211 521.425M3.64205 620L14.4706 502.717M57 106L42.4388 199.796M333 117L236.777 260.236M527 128.5L342.122 301.37M87.1818 541.359C81.9965 542.389 70.805 539.845 67.5211 521.425M87.1818 541.359L132.818 498.4M67.5211 521.425C59.9286 525.502 38.6891 527.469 14.4706 502.717M67.5211 521.425L133.993 418.848M14.4706 502.717C11.8213 507.754 4.79432 514.805 -2.11932 502.717M14.4706 502.717L20.5824 436.52M-3.55966 433.642C0.292162 439.638 10.5131 448.608 20.5824 436.52M20.5824 436.52C25.9782 458.586 50.5972 496.408 100.145 471.081C99.6014 485.464 105.375 511.063 132.818 498.4M20.5824 436.52L26.3621 373.921M132.818 498.4L248.5 389.501M26.3621 373.921C22.8697 381.356 11.996 391.766 -3.55966 373.921M26.3621 373.921C41.114 396.198 83.2929 436.37 133.993 418.848M26.3621 373.921L33.9354 291.895M133.993 418.848C135.673 434.333 147.82 462.136 182.964 449.472M133.993 418.848L184.089 341.543M248.5 389.501C229.805 395.341 190.749 393.924 184.089 341.543M248.5 389.501L342.122 301.37M184.089 341.543C155.898 353.535 86.4008 360.394 33.9354 291.895M184.089 341.543L236.777 260.236M33.9354 291.895C28.8788 300.05 14.0125 310.603 -5 287.578M33.9354 291.895L42.4388 199.796M42.4388 199.796C35.508 208.19 16.317 216.92 -5 184.685M42.4388 199.796C83 245 162.5 280 236.777 260.236M236.777 260.236C255.808 286.219 303.521 330.823 342.122 301.37" stroke="#77008A" stroke-width="3"/>
<path d="M54 117C54 117 119.028 161.701 165.5 170C211.972 178.299 304.5 162 304.5 162C304.5 162 325.539 198.318 346 214.5C366.461 230.682 413 238 413 238" stroke="#77008A" stroke-width="3"/>
<path d="M-304 2C-304 2 -238.972 46.7014 -192.5 55C-146.028 63.2986 -53.5 47 -53.5 47C-53.5 47 -32.4612 83.3175 -12 99.5C8.46121 115.682 57 117 57 117" stroke="#77008A" stroke-width="3"/>
</svg>
