<svg width="164" height="86" viewBox="0 0 164 86" fill="none" xmlns="http://www.w3.org/2000/svg">
<path d="M48.8809 59L0.322737 52.4527C0.322737 52.4527 -1.98835 23.8223 5.75835 14.2602C13.5051 4.69808 22.4234 -1.78464 34.0235 0.438165C45.6236 2.66097 50.9658 11.1366 55.0412 22.2625C59.1166 33.3883 48.8809 59 48.8809 59Z" fill="#0D000F"/>
<path d="M99.2963 71L67.2132 66.4502C67.2132 66.4502 65.6863 46.5545 70.8046 39.9096C75.923 33.2648 81.8155 28.7598 89.4798 30.3045C97.1442 31.8492 100.674 37.739 103.367 45.4705C106.059 53.202 99.2963 71 99.2963 71Z" fill="#0D000F"/>
<path d="M158.661 86L122.242 78.1211C122.242 78.1211 120.509 43.6676 126.319 32.1606C132.129 20.6536 138.818 12.8524 147.518 15.5273C156.218 18.2022 160.224 28.4017 163.281 41.7904C166.337 55.1791 158.661 86 158.661 86Z" fill="#0D000F"/>
</svg>
