<svg width="252" height="98" viewBox="0 0 252 98" fill="none" xmlns="http://www.w3.org/2000/svg">
<g opacity="0.76">
<path d="M16.2819 71.6035C4.85292 75.3285 0 94.7313 0 94.7313H252C252 94.7313 250.52 86.4053 245.154 81.0396C239.789 75.674 230.167 77.8943 230.167 77.8943C230.167 77.8943 226.046 68.636 220.361 65.4978C214.676 62.3596 196.493 68.6432 196.493 68.6432C196.493 68.6432 195.592 40.9542 184.652 35.8943C173.712 30.8343 156.344 44.0352 156.344 44.0352C156.344 44.0352 143.085 1.14573 117.304 7.03084C91.5232 12.9159 84.5551 57.9119 84.5551 57.9119C70.1953 37.7566 38.5289 46.1136 35.9846 70.7299L35.8943 71.6035C35.8943 71.6035 27.711 67.8785 16.2819 71.6035Z" fill="#52115D" fill-opacity="0.36"/>
<g filter="url(#filter0_d_331_751)">
<path d="M59.6525 78.2894C52.0667 80.9377 48.8457 94.7318 48.8457 94.7318H216.106C216.106 94.7318 215.123 88.8125 211.562 84.9979C208 81.1833 201.615 82.7617 201.615 82.7617C201.615 82.7617 198.879 76.1797 195.106 73.9486C191.333 71.7176 179.264 76.1848 179.264 76.1848C179.264 76.1848 178.666 56.4997 171.405 52.9024C164.144 49.3051 152.616 58.6901 152.616 58.6901C152.616 58.6901 143.815 28.1983 126.704 32.3823C109.592 36.5662 104.967 68.5555 104.967 68.5555C95.8053 54.7811 74.4215 60.1361 72.8326 76.6028L72.6698 78.2894C72.6698 78.2894 67.2383 75.6412 59.6525 78.2894Z" fill="#52115D" fill-opacity="0.36" shape-rendering="crispEdges"/>
</g>
</g>
<defs>
<filter id="filter0_d_331_751" x="41.1133" y="28.1221" width="174.992" height="68.9291" filterUnits="userSpaceOnUse" color-interpolation-filters="sRGB">
<feFlood flood-opacity="0" result="BackgroundImageFix"/>
<feColorMatrix in="SourceAlpha" type="matrix" values="0 0 0 0 0 0 0 0 0 0 0 0 0 0 0 0 0 0 127 0" result="hardAlpha"/>
<feOffset dx="-4.63946" dy="-0.773243"/>
<feGaussianBlur stdDeviation="1.54649"/>
<feComposite in2="hardAlpha" operator="out"/>
<feColorMatrix type="matrix" values="0 0 0 0 0 0 0 0 0 0 0 0 0 0 0 0 0 0 0.1 0"/>
<feBlend mode="normal" in2="BackgroundImageFix" result="effect1_dropShadow_331_751"/>
<feBlend mode="normal" in="SourceGraphic" in2="effect1_dropShadow_331_751" result="shape"/>
</filter>
</defs>
</svg>
