<svg width="243" height="350" viewBox="0 0 243 350" fill="none" xmlns="http://www.w3.org/2000/svg">
<path d="M19 6.5H143C194.639 6.5 236.5 48.3614 236.5 100V331C236.5 337.904 230.904 343.5 224 343.5H100C48.3614 343.5 6.5 301.639 6.5 250V19C6.5 12.0964 12.0964 6.5 19 6.5Z" stroke="#69D228" stroke-opacity="0.62" stroke-width="13"/>
<path d="M80 94.5H103C143.593 94.5 176.5 127.407 176.5 168V244C176.5 250.904 170.904 256.5 164 256.5H141C100.407 256.5 67.5 223.593 67.5 183V107C67.5 100.096 73.0964 94.5 80 94.5Z" fill="#6AD229" fill-opacity="0.5" stroke="#66E814" stroke-width="13"/>
</svg>
